<svg fill="none" xmlns="http://www.w3.org/2000/svg" viewBox="0 0 18 20"><path d="M15.67 19h-13.34c-.73 0-1.33-.55-1.33-1.23a4.92 4.92 0 0 1 3.43-4.58l.41-.14a12.75 12.75 0 0 1 8.32 0l.4.14a4.92 4.92 0 0 1 3.44 4.58c0 .68-.6 1.23-1.33 1.23Zm-8.7-9.6a4.77 4.77 0 0 0 4.06 0 4.18 4.18 0 0 0 2.32-2.8l.08-.31a4.12 4.12 0 0 0-.84-3.54l-.12-.14a4.46 4.46 0 0 0-3.47-1.61 4.5 4.5 0 0 0-3.47 1.6l-.12.15a4.11 4.11 0 0 0-.84 3.54l.08.32a4.17 4.17 0 0 0 2.32 2.8Z" stroke="#163152" stroke-linecap="square" stroke-linejoin="round"/></svg>